<svg width="117" height="53" viewBox="0 0 117 53" fill="none" xmlns="http://www.w3.org/2000/svg">
<g opacity="0.75">
<path d="M89.0627 49.5986H89.4829V52.2915H89.0627V49.5986ZM87.1666 50.7874H89.1681V51.0528H87.1666V50.7874ZM86.8266 49.5986H87.2467V52.2915H86.8266V49.5986Z" fill="#F1F2F2"/>
<path d="M91.354 52.0609C91.5073 52.0609 91.6458 52.0321 91.7694 51.974C91.8926 51.9167 91.99 51.8295 92.0622 51.7128C92.1337 51.5961 92.1697 51.4518 92.1697 51.2797C92.1697 51.1056 92.1343 50.9604 92.0647 50.8453C91.9945 50.7299 91.8984 50.6433 91.7767 50.5853C91.6548 50.5279 91.5175 50.499 91.3639 50.499C91.2142 50.499 91.0772 50.5279 90.9537 50.5853C90.8301 50.6433 90.7321 50.7299 90.6584 50.8453C90.5852 50.9604 90.5485 51.1056 90.5485 51.2797C90.5485 51.4518 90.5843 51.5961 90.6558 51.7128C90.7276 51.8295 90.8244 51.9167 90.9463 51.974C91.068 52.0321 91.204 52.0609 91.354 52.0609ZM91.354 52.3376C91.1104 52.3376 90.8952 52.2943 90.7088 52.2071C90.522 52.1199 90.3764 51.9968 90.2733 51.8378C90.1699 51.6788 90.1182 51.4928 90.1182 51.2797C90.1182 51.0645 90.1708 50.878 90.2759 50.7199C90.3809 50.5625 90.5275 50.4397 90.7161 50.3528C90.9045 50.2653 91.1206 50.222 91.3639 50.222C91.611 50.222 91.8265 50.2653 92.012 50.3528C92.1972 50.4397 92.3415 50.5625 92.4446 50.7199C92.5481 50.878 92.5998 51.0645 92.5998 51.2797C92.5998 51.4928 92.5471 51.6788 92.4421 51.8378C92.337 51.9968 92.1911 52.1199 92.0044 52.2071C91.8176 52.2943 91.6008 52.3376 91.354 52.3376Z" fill="#F1F2F2"/>
<path d="M93.2103 52.2914V50.2678H93.5905L93.6106 50.5448C93.6908 50.4448 93.799 50.3659 93.9356 50.3082C94.0726 50.2505 94.2159 50.2217 94.366 50.2217C94.4931 50.2217 94.607 50.2351 94.7086 50.2621C94.8107 50.289 94.8998 50.33 94.9764 50.3852C95.053 50.4406 95.115 50.5089 95.1616 50.591C95.2484 50.4705 95.3659 50.3788 95.5144 50.3159C95.6628 50.2531 95.8186 50.2217 95.9821 50.2217C96.1756 50.2217 96.3416 50.2505 96.4798 50.3082C96.6184 50.3659 96.725 50.4531 96.8 50.5698C96.8751 50.6865 96.9127 50.8321 96.9127 51.0065V52.2914H96.4974V51.0411C96.4974 50.859 96.4457 50.7231 96.3425 50.6333C96.2388 50.5435 96.0989 50.4987 95.9221 50.4987C95.802 50.4987 95.6925 50.523 95.5945 50.5718C95.4959 50.6205 95.4176 50.6923 95.3592 50.7872C95.3008 50.8821 95.2717 50.9975 95.2717 51.1334V52.2914H94.8516V51.0411C94.8516 50.859 94.7999 50.7231 94.6961 50.6333C94.593 50.5435 94.4544 50.4987 94.2811 50.4987C94.1642 50.4987 94.0566 50.523 93.9583 50.5718C93.86 50.6205 93.7808 50.6923 93.7208 50.7872C93.6607 50.8821 93.6304 50.9975 93.6304 51.1334V52.2914H93.2103Z" fill="#F1F2F2"/>
<path d="M98.6986 52.3375C98.4653 52.3375 98.2581 52.2939 98.0783 52.2071C97.8979 52.1195 97.7571 51.9968 97.6553 51.8374C97.5534 51.6784 97.5027 51.4925 97.5027 51.2796C97.5027 51.0667 97.5534 50.8811 97.6553 50.7218C97.7571 50.5631 97.8989 50.4397 98.0805 50.3528C98.2625 50.2653 98.4716 50.2217 98.7085 50.2217C98.962 50.2217 99.1737 50.2653 99.3439 50.3528C99.514 50.4397 99.6424 50.5564 99.7292 50.7026C99.8157 50.8487 99.8595 51.009 99.8595 51.1834V51.2607C99.8595 51.2863 99.8576 51.3168 99.8541 51.353H97.8178V51.1026H99.4492C99.4422 50.9052 99.3681 50.7548 99.2264 50.6506C99.0846 50.5468 98.9087 50.4951 98.6986 50.4951C98.5585 50.4951 98.4292 50.5214 98.3107 50.5737C98.1923 50.6263 98.0962 50.7038 98.0231 50.8067C97.9497 50.9093 97.9129 51.0372 97.9129 51.1914V51.2992C97.9129 51.4681 97.9497 51.6098 98.0231 51.7243C98.0962 51.8381 98.1923 51.9237 98.3107 51.9801C98.4292 52.0365 98.5585 52.0644 98.6986 52.0644C98.8854 52.0644 99.032 52.0372 99.1389 51.982C99.2455 51.9269 99.3238 51.848 99.3739 51.7451H99.7892C99.749 51.8583 99.6797 51.9592 99.5817 52.0493C99.4831 52.1391 99.3595 52.2096 99.2111 52.2609C99.0629 52.3119 98.8918 52.3375 98.6986 52.3375Z" fill="#F1F2F2"/>
<path d="M101.946 52.3376C101.615 52.3376 101.329 52.2793 101.088 52.1626C100.846 52.0462 100.659 51.8833 100.527 51.6743C100.395 51.465 100.33 51.2223 100.33 50.945C100.33 50.668 100.395 50.425 100.527 50.2163C100.659 50.007 100.846 49.8444 101.088 49.7274C101.329 49.6107 101.615 49.5524 101.946 49.5524C102.342 49.5524 102.664 49.6255 102.911 49.7716C103.158 49.9178 103.316 50.1246 103.387 50.3913H102.931C102.875 50.2243 102.765 50.0903 102.604 49.9893C102.442 49.8877 102.222 49.837 101.946 49.837C101.705 49.837 101.496 49.8816 101.318 49.9698C101.139 50.0586 101.002 50.1852 100.905 50.3509C100.808 50.516 100.76 50.7145 100.76 50.945C100.76 51.1758 100.808 51.3739 100.905 51.5397C101.002 51.7048 101.139 51.832 101.318 51.9202C101.496 52.009 101.705 52.0529 101.946 52.0529C102.222 52.0529 102.442 52.0039 102.604 51.9048C102.765 51.8064 102.875 51.675 102.931 51.5108H103.387C103.316 51.7699 103.158 51.9721 102.911 52.1183C102.664 52.2645 102.342 52.3376 101.946 52.3376Z" fill="#F1F2F2"/>
<path d="M104.867 52.0644C104.978 52.0644 105.079 52.0452 105.172 52.0067C105.266 51.9682 105.347 51.9163 105.415 51.8509C105.484 51.7855 105.536 51.7118 105.573 51.6297C105.609 51.5476 105.628 51.4617 105.628 51.3719V51.3335H105.007C104.851 51.3335 104.723 51.3489 104.625 51.3796C104.526 51.4104 104.455 51.4534 104.412 51.5085C104.369 51.5636 104.347 51.6258 104.347 51.6951C104.347 51.7695 104.367 51.8342 104.407 51.8894C104.447 51.9445 104.506 51.9875 104.585 52.0182C104.663 52.049 104.757 52.0644 104.867 52.0644ZM104.807 52.3375C104.607 52.3375 104.44 52.3087 104.307 52.251C104.173 52.1933 104.073 52.1163 104.007 52.0202C103.94 51.924 103.907 51.8208 103.907 51.7105C103.907 51.5771 103.951 51.4636 104.039 51.37C104.128 51.2764 104.252 51.2052 104.412 51.1565C104.572 51.1081 104.759 51.0834 104.972 51.0834H105.628C105.628 50.9526 105.608 50.8436 105.568 50.7564C105.528 50.6692 105.463 50.6038 105.373 50.5602C105.283 50.5166 105.162 50.4948 105.012 50.4948C104.862 50.4948 104.734 50.5237 104.627 50.5814C104.52 50.6391 104.454 50.7244 104.427 50.8372H103.997C104.017 50.7038 104.075 50.5916 104.172 50.5006C104.269 50.4095 104.391 50.3403 104.54 50.2928C104.688 50.2454 104.846 50.2217 105.012 50.2217C105.249 50.2217 105.444 50.2544 105.598 50.3198C105.751 50.3852 105.865 50.4762 105.938 50.5929C106.011 50.7096 106.048 50.8475 106.048 51.0065V52.2914H105.673L105.648 51.9451C105.615 51.999 105.572 52.0497 105.52 52.0971C105.469 52.1445 105.408 52.1862 105.338 52.2221C105.267 52.258 105.188 52.2862 105.1 52.3068C105.011 52.3273 104.914 52.3375 104.807 52.3375Z" fill="#F1F2F2"/>
<path d="M106.743 52.2914V50.2678H107.124L107.154 50.6372C107.214 50.5448 107.292 50.4679 107.389 50.4063C107.486 50.3448 107.603 50.2986 107.742 50.2678C107.88 50.2371 108.036 50.2217 108.209 50.2217V50.5602H107.949C107.849 50.5602 107.752 50.5705 107.659 50.591C107.565 50.6115 107.481 50.6449 107.406 50.691C107.331 50.7372 107.272 50.8 107.229 50.8795C107.186 50.959 107.163 51.059 107.163 51.1796V52.2914H106.743Z" fill="#F1F2F2"/>
<path d="M108.695 52.2914V50.2678H109.075L109.105 50.6372C109.165 50.5448 109.244 50.4679 109.34 50.4063C109.437 50.3448 109.555 50.2986 109.693 50.2678C109.832 50.2371 109.987 50.2217 110.161 50.2217V50.5602H109.901C109.801 50.5602 109.704 50.5705 109.61 50.591C109.517 50.6115 109.433 50.6449 109.358 50.691C109.283 50.7372 109.223 50.8 109.18 50.8795C109.137 50.959 109.115 51.059 109.115 51.1796V52.2914H108.695Z" fill="#F1F2F2"/>
<path d="M111.642 52.3375C111.408 52.3375 111.201 52.2939 111.021 52.2071C110.841 52.1195 110.7 51.9968 110.598 51.8374C110.497 51.6784 110.446 51.4925 110.446 51.2796C110.446 51.0667 110.497 50.8811 110.598 50.7218C110.7 50.5631 110.842 50.4397 111.024 50.3528C111.206 50.2653 111.415 50.2217 111.652 50.2217C111.905 50.2217 112.117 50.2653 112.287 50.3528C112.457 50.4397 112.586 50.5564 112.672 50.7026C112.759 50.8487 112.803 51.009 112.803 51.1834V51.2607C112.803 51.2863 112.801 51.3168 112.797 51.353H110.761V51.1026H112.392C112.385 50.9052 112.311 50.7548 112.17 50.6506C112.028 50.5468 111.852 50.4951 111.642 50.4951C111.502 50.4951 111.372 50.5214 111.254 50.5737C111.135 50.6263 111.039 50.7038 110.966 50.8067C110.893 50.9093 110.856 51.0372 110.856 51.1914V51.2992C110.856 51.4681 110.893 51.6098 110.966 51.7243C111.039 51.8381 111.135 51.9237 111.254 51.9801C111.372 52.0365 111.502 52.0644 111.642 52.0644C111.829 52.0644 111.975 52.0372 112.082 51.982C112.189 51.9269 112.267 51.848 112.317 51.7451H112.732C112.692 51.8583 112.623 51.9592 112.525 52.0493C112.426 52.1391 112.303 52.2096 112.154 52.2609C112.006 52.3119 111.835 52.3375 111.642 52.3375Z" fill="#F1F2F2"/>
<path d="M115.014 51.8341C114.817 51.8341 114.636 51.7988 114.471 51.7283C114.306 51.6578 114.174 51.5558 114.076 51.4224C113.977 51.2891 113.928 51.1288 113.928 50.9416C113.928 50.7543 113.977 50.5941 114.076 50.4607C114.174 50.3273 114.306 50.2251 114.471 50.1549C114.636 50.0843 114.817 50.0491 115.014 50.0491C115.26 50.0491 115.478 50.0997 115.664 50.2007C115.851 50.3023 115.976 50.4479 116.039 50.6377H115.654C115.607 50.5222 115.526 50.4344 115.409 50.3738C115.292 50.3139 115.159 50.2837 115.009 50.2837C114.879 50.2837 114.76 50.3087 114.654 50.3584C114.547 50.4088 114.461 50.4825 114.396 50.58C114.331 50.6774 114.298 50.7989 114.298 50.9454C114.298 51.089 114.331 51.2102 114.396 51.3086C114.461 51.4077 114.547 51.4811 114.654 51.5302C114.76 51.5789 114.879 51.6029 115.009 51.6029C115.166 51.6029 115.3 51.5731 115.411 51.5129C115.523 51.4526 115.604 51.366 115.654 51.2532H116.039C115.976 51.4327 115.851 51.5741 115.664 51.6783C115.478 51.7821 115.26 51.8341 115.014 51.8341ZM115.014 52.1611C115.331 52.1611 115.603 52.1095 115.832 52.0072C116.06 51.9046 116.236 51.7613 116.36 51.5783C116.483 51.3949 116.545 51.1839 116.545 50.9454C116.545 50.7018 116.483 50.4889 116.36 50.3065C116.236 50.1247 116.06 49.9824 115.832 49.8795C115.603 49.7772 115.331 49.7259 115.014 49.7259C114.7 49.7259 114.428 49.7772 114.198 49.8795C113.968 49.9824 113.791 50.1247 113.668 50.3065C113.544 50.4889 113.483 50.7018 113.483 50.9454C113.483 51.1839 113.544 51.3949 113.668 51.5783C113.791 51.7613 113.968 51.9046 114.198 52.0072C114.428 52.1095 114.7 52.1611 115.014 52.1611ZM115.014 52.3073C114.67 52.3073 114.369 52.2489 114.108 52.1322C113.848 52.0152 113.646 51.8543 113.5 51.6494C113.355 51.4442 113.283 51.2096 113.283 50.9454C113.283 50.6787 113.355 50.4427 113.5 50.2376C113.646 50.0324 113.848 49.8721 114.108 49.7567C114.369 49.6413 114.67 49.5833 115.014 49.5833C115.357 49.5833 115.659 49.6413 115.917 49.7567C116.175 49.8721 116.378 50.0324 116.525 50.2376C116.672 50.4427 116.745 50.6787 116.745 50.9454C116.745 51.2096 116.672 51.4442 116.525 51.6494C116.378 51.8543 116.175 52.0152 115.917 52.1322C115.659 52.2489 115.357 52.3073 115.014 52.3073Z" fill="#F1F2F2"/>
</g>
<g opacity="0.5">
<path d="M80.5429 27.8341L82.8384 27.8789H83.2889C82.8384 28.2111 82.2005 29.1898 81.3758 30.8168C80.5502 32.4438 79.9357 33.6716 79.5302 34.5C79.1254 35.329 78.6749 36.4434 78.18 37.8446C77.6849 39.2459 77.4374 40.3834 77.4374 41.2569C77.4374 42.1312 77.7369 42.5675 78.3377 42.5675C78.7272 42.538 79.2751 42.2591 79.9803 41.7314C80.685 41.2047 81.2702 40.6466 81.7357 40.0592C82.2005 39.4716 82.7107 38.7189 83.2659 37.7994C83.8211 36.8806 84.3012 36.0821 84.7064 35.404C85.1118 34.7263 85.3433 34.3871 85.4043 34.3871C85.6137 34.3871 85.7191 34.666 85.7191 35.2232C85.7191 35.7814 85.5684 36.3161 85.2692 36.8277C83.9785 38.9677 82.9131 40.6094 82.0734 41.7542C81.2331 42.8996 80.2204 43.946 79.035 44.8949C77.8496 45.8442 76.7772 46.3187 75.8169 46.3187C74.1069 46.3187 73.2516 45.0533 73.2516 42.5223C73.2516 40.8049 73.5814 38.8615 74.2419 36.6921C74.9015 34.5227 75.8769 32.429 77.1673 30.41C76.117 31.2537 75.0669 31.6753 74.0169 31.6753C73.6861 31.6753 73.3416 31.6006 72.9815 31.4493C70.8507 35.6682 69.703 37.7767 69.5382 37.7767C69.3732 37.7767 69.2911 37.5282 69.2911 37.0313C69.2911 36.5341 69.4779 35.8413 69.8534 34.9523C70.2282 34.064 70.6333 33.2122 71.0685 32.3985C71.5036 31.5852 71.736 31.1332 71.7664 31.0428C70.686 30.5004 70.1461 29.6268 70.1461 28.4214C70.1461 27.819 70.3332 27.2769 70.7083 26.7944C71.0835 26.3126 71.601 26.0712 72.2616 26.0712C72.9211 26.0712 73.461 26.2821 73.8818 26.704C73.8211 26.8848 73.7918 27.1557 73.7918 27.5173C73.7918 28.331 74.0842 28.9715 74.6694 29.4383C75.255 29.9057 75.9672 30.1387 76.8072 30.1387C77.0473 30.1387 77.227 30.124 77.3474 30.0935C78.3971 28.5874 79.4628 27.8341 80.5429 27.8341Z" fill="white"/>
<path d="M95.6661 27.8341L97.9616 27.8789H98.4118C97.9616 28.2111 97.3237 29.1898 96.4988 30.8168C95.6732 32.4438 95.0586 33.6716 94.6534 34.5C94.2486 35.329 93.7981 36.4434 93.3033 37.8446C92.8081 39.2459 92.5607 40.3834 92.5607 41.2569C92.5607 42.1312 92.8601 42.5675 93.4607 42.5675C93.8505 42.538 94.398 42.2591 95.1036 41.7314C95.8082 41.2047 96.3931 40.6466 96.8589 40.0592C97.3237 39.4716 97.8336 38.7189 98.3891 37.7994C98.9443 36.8806 99.4242 36.0821 99.8296 35.404C100.235 34.7263 100.467 34.3871 100.528 34.3871C100.737 34.3871 100.842 34.666 100.842 35.2232C100.842 35.7814 100.692 36.3161 100.392 36.8277C99.1017 38.9677 98.0363 40.6094 97.1964 41.7542C96.3564 42.8996 95.3434 43.946 94.1583 44.8949C92.9728 45.8442 91.9001 46.3187 90.9401 46.3187C89.2298 46.3187 88.3745 45.0533 88.3745 42.5223C88.3745 40.8049 88.7046 38.8615 89.3652 36.6921C90.0245 34.5227 91.0001 32.429 92.2906 30.41C91.2399 31.2537 90.1902 31.6753 89.1401 31.6753C88.8093 31.6753 88.4649 31.6006 88.1047 31.4493C85.974 35.6682 84.8262 37.7767 84.6615 37.7767C84.4961 37.7767 84.4141 37.5282 84.4141 37.0313C84.4141 36.5341 84.6012 35.8413 84.9766 34.9523C85.3511 34.064 85.7566 33.2122 86.1917 32.3985C86.6265 31.5852 86.859 31.1332 86.8896 31.0428C85.8092 30.5004 85.2694 29.6268 85.2694 28.4214C85.2694 27.819 85.4565 27.2769 85.8316 26.7944C86.2064 26.3126 86.7239 26.0712 87.3848 26.0712C88.0444 26.0712 88.5839 26.2821 89.005 26.704C88.9441 26.8848 88.915 27.1557 88.915 27.5173C88.915 28.331 89.2075 28.9715 89.7927 29.4383C90.3779 29.9057 91.0901 30.1387 91.9304 30.1387C92.1702 30.1387 92.3503 30.124 92.4703 30.0935C93.5204 28.5874 94.5861 27.8341 95.6661 27.8341Z" fill="white"/>
<path d="M111.959 30.6813C111.959 29.8077 111.538 29.3707 110.699 29.3707C109.529 29.3707 108.224 30.0936 106.783 31.5398C105.343 32.986 104.623 34.1609 104.623 35.0649C104.623 35.6683 105.192 35.969 106.333 35.969C107.473 35.969 108.666 35.4118 109.911 34.2968C111.156 33.1825 111.839 31.9771 111.959 30.6813ZM116.73 34.2516C116.91 34.2516 117 34.5453 117 35.1329C117 35.7202 116.76 36.421 116.28 37.2343C115.799 38.048 115.327 38.8161 114.862 39.5394C114.397 40.2626 113.774 41.1067 112.994 42.0704C112.214 43.035 111.448 43.8034 110.699 44.3754C108.808 45.7616 106.91 46.4544 105.005 46.4544C103.099 46.4544 101.562 45.9648 100.392 44.9854C99.2216 44.0067 98.6364 42.5076 98.6364 40.4886C98.6364 37.4152 99.7615 34.568 102.012 31.9466C104.263 29.3255 106.888 28.0146 109.889 28.0146C111.239 28.0146 112.319 28.3692 113.129 29.0767C113.939 29.7852 114.345 30.6357 114.345 31.6302C114.345 33.3181 113.549 34.6738 111.959 35.6978C110.368 36.7224 108.494 37.2343 106.333 37.2343C105.073 37.2343 104.142 37.0692 103.543 36.7374C102.972 38.274 102.687 39.6298 102.687 40.805C102.687 43.336 103.752 44.6014 105.883 44.6014C107.143 44.6014 108.441 44.1122 109.776 43.1325C111.111 42.1537 112.252 41.0535 113.197 39.833C114.142 38.6129 115.214 36.858 116.415 34.568C116.535 34.3574 116.64 34.2516 116.73 34.2516Z" fill="white"/>
</g>
<path d="M58.4193 35.9664C57.6419 37.3716 56.7365 38.6116 55.7017 39.6865C54.6667 40.7621 53.7312 41.3343 52.8951 41.4029C52.1231 41.4664 51.6934 41.0294 51.6059 40.0921C51.4032 37.9146 52.1704 35.3602 53.9078 32.4291C55.6449 29.498 57.5755 27.9451 59.6989 27.7707C60.8885 27.6726 61.6901 28.0948 62.1023 29.0357C61.3658 30.529 60.1379 32.8391 58.4193 35.9664ZM71.828 32.7644C71.7759 32.2076 71.6533 31.9367 71.4605 31.9524C71.3641 31.9604 71.261 32.0755 71.1521 32.2964C68.7378 37.6829 66.5972 40.4524 64.7317 40.605C64.1526 40.6524 63.8266 40.285 63.7532 39.5019C63.6124 37.9964 64.1599 35.5314 65.3964 32.1076C66.6323 28.684 67.7433 26.522 68.7289 25.6221L68.2465 25.6616L65.8294 25.8142C65.1851 25.8667 64.5175 26.1796 63.8257 26.7519C63.1332 27.3248 62.6428 27.9717 62.3536 28.693C61.9743 27.7534 61.3128 27.102 60.3716 26.7387C59.4298 26.3765 58.4442 26.2367 57.4149 26.321C55.2267 26.5002 53.2875 27.4254 51.5957 29.096C49.9039 30.7672 48.6684 32.7263 47.8903 34.9749C47.7556 35.3637 47.6407 35.7497 47.535 36.1344C46.4747 38.5686 44.3759 40.9326 41.2321 43.2264C37.8023 45.7283 34.4631 47.1122 31.2134 47.3783C26.0017 47.805 23.1603 45.5035 22.69 40.4732C22.3864 37.2235 23.0441 33.9448 24.664 30.6367C26.2833 27.3296 28.5616 24.5588 31.4978 22.3246C34.4331 20.0914 37.5421 18.8398 40.8241 18.5712C43.3013 18.3683 44.617 19.0867 44.7699 20.7252C44.8704 21.7998 44.4254 22.7612 43.4347 23.6111C42.4444 24.461 41.3219 24.9374 40.0672 25.04C39.616 25.0771 39.209 25.0534 38.8447 24.9694C38.5037 25.4817 38.3527 25.9495 38.3923 26.3733C38.4322 26.7971 38.6892 27.125 39.1649 27.3565C39.6406 27.5886 40.2319 27.6748 40.94 27.6171C42.452 27.4931 43.8715 26.9785 45.1971 26.0722C46.5223 25.1669 47.3881 24.1135 47.7949 22.9122C47.9941 22.2701 48.0701 21.694 48.0225 21.1852C47.8929 19.801 46.998 18.7276 45.3385 17.9666C43.6786 17.2055 41.3691 16.9462 38.4092 17.1885C35.4487 17.4309 32.515 18.383 29.6069 20.0449C26.6987 21.7072 24.3333 23.7163 22.5109 26.0719C20.6889 28.4282 19.3017 30.9339 18.3506 33.5887C17.3992 36.2438 17.0334 38.744 17.2527 41.0891C17.8309 47.278 21.9005 50.0629 29.4616 49.4438C32.711 49.1777 35.844 48.3587 38.8603 46.9869C41.8767 45.6154 44.3264 43.9057 46.2104 41.8575C46.491 41.5523 46.7464 41.2567 46.983 40.9689C46.9926 41.1493 47.0009 41.3298 47.0175 41.5094C47.2767 44.2802 48.4839 45.5766 50.6398 45.4C53.76 45.1445 56.8702 41.8255 59.9693 35.4423C59.463 37.3042 59.2969 39.1691 59.4713 41.0359C59.705 43.5355 60.6902 44.7136 62.4279 44.5713C65.0979 44.3526 68.1207 40.9647 71.4953 34.4074C71.7686 33.8695 71.88 33.3219 71.828 32.7644Z" fill="#F1F2F2"/>
<path d="M54.5246 8.60225C51.2391 11.1679 50.4004 16.0167 52.006 23.1469C50.4422 21.174 49.3724 18.9058 48.7955 16.3434C46.7688 7.34396 49.9279 1.89498 58.2731 0" fill="#F1F2F2"/>
<path fill-rule="evenodd" clip-rule="evenodd" d="M64.8342 14.1037C64.4699 13.895 64.0514 13.7046 63.6309 13.5058L63.6424 12.562C63.65 12.2918 63.4374 12.0161 63.099 11.9632L61.6435 11.8362C61.3063 11.7913 61.005 11.9927 60.9417 12.2729L60.7122 13.2019C60.2244 13.2833 59.8055 13.4125 59.394 13.5818L58.6676 12.8621C58.4713 12.6851 58.077 12.6412 57.8328 12.8416L56.6553 13.7277C56.4101 13.92 56.3025 14.2573 56.5133 14.542L56.9733 15.3056C56.6984 15.6624 56.4376 16.0846 56.2345 16.5302L55.2985 16.5347C54.9677 16.5309 54.7318 16.7809 54.6676 17.0605L54.4642 18.5153C54.4649 18.8346 54.6727 19.1113 54.9597 19.1728L55.8802 19.3889C55.9478 19.7979 56.0746 20.2477 56.2633 20.6956L55.5855 21.2794C55.3495 21.5288 55.3499 21.8484 55.5583 22.1244L56.4603 23.2436C56.6652 23.4699 57.0024 23.5148 57.3117 23.3622L58.0652 22.9169C58.4374 23.1743 58.8659 23.4222 59.2765 23.5645L59.249 24.4096C59.2493 24.7292 59.513 24.9959 59.7921 25.0087L61.3114 25.1758C61.6403 25.1713 61.8928 25.02 62.0058 24.6901L62.2073 23.9165C62.6913 23.8357 63.1667 23.7065 63.6328 23.519L64.2238 24.1105C64.484 24.3278 64.8648 24.3143 65.0586 24.1307L66.2919 23.2353C66.5358 23.0349 66.5885 22.7149 66.4423 22.4707L65.9899 21.7554C66.3069 21.3329 66.57 20.9274 66.7194 20.4737L67.5932 20.4372C67.9266 20.4321 68.2222 20.223 68.279 19.9025L68.4256 18.4486C68.4907 18.1771 68.2781 17.902 67.9907 17.8408L67.0751 17.6234C66.9991 17.1653 66.8759 16.7655 66.692 16.3167L67.3599 15.6755C67.5498 15.4925 67.5968 15.1148 67.3927 14.8882L66.4902 13.7694C66.2903 13.5421 65.9388 13.4408 65.6435 13.6498L64.8342 14.1037ZM63.0048 20.4115C61.9247 21.2226 60.3543 21.0636 59.5207 20.0426C58.6922 19.0209 58.8831 17.517 59.9632 16.7065C61.042 15.8878 62.6169 16.0455 63.4457 17.0678C64.2793 18.0886 64.0846 19.6008 63.0048 20.4115Z" fill="#F1F2F2"/>
<path d="M12.0709 36.8015L5.329 44.6222L5.32581 49.078C5.32549 49.5714 5.93368 49.8025 6.25901 49.4322L12.0667 42.817L12.0709 36.8015Z" fill="#F1F2F2"/>
<path d="M15.4119 17.3635L0.272784 35.1595C-0.0164677 35.5262 -0.168437 36.8015 0.297686 36.8015H4.7715L16.8042 22.681V17.3824C16.8039 16.8496 15.7666 16.9676 15.4119 17.3635Z" fill="#F1F2F2"/>
<g opacity="0.7">
<path d="M20.6885 26.7501L17.1989 22.6547L17.2004 17.3554C17.2011 16.8229 18.2382 16.9404 18.5933 17.3364L23.6932 23.3317" fill="#F1F2F2"/>
</g>
<path d="M11.9728 29.7581L5.98189 36.8286C5.56366 37.3223 5.33347 37.9493 5.33251 38.5979L5.32581 43.6455L12.0718 35.7883L11.9728 29.7581Z" fill="#F1F2F2"/>
<g opacity="0.7">
<path d="M16.6519 24.3036L12.6912 28.937L12.7892 35.3166L17.3655 30.2084L17.1742 24.4879C17.165 24.2164 16.8285 24.0975 16.6519 24.3036Z" fill="#F1F2F2"/>
</g>
</svg>
